# xmcd
#
# Track frame offsets: 
#        150
#        17763
#        33574
#        51789
#        67962
#        87314
#        104516
#        121647
#        138764
#        162792
#        180909
#        198758
#        216981
#        234510
#        253389
#        279141
#        302447
#        323878
#
# Disc length: 4644 seconds
#
# Revision: 10
# Processed by: cddbd v1.5.2PL0 Copyright (c) Steve Scherf et al.
# Submitted via: ExactAudioCopy v0.99pb5
#
DISCID=eb122212
DTITLE=Air Supply - Air Supply - Forever Love - 36 Greatest Hits (1980
DTITLE=Various Artist - 2001) - CD 1
DYEAR=2003
DGENRE=Pop
TTITLE0=Lost in love
TTITLE1=Every woman in the world
TTITLE2=All out of love
TTITLE3=Chances
TTITLE4=The one that you love
TTITLE5=Here I am (just when I thought I was over you)
TTITLE6=I'll never get enough of you
TTITLE7=Tonite
TTITLE8=Sweet dreams
TTITLE9=Come what may
TTITLE10=Even the nights are better
TTITLE11=Two less lonely people in the world
TTITLE12=Young love
TTITLE13=Taking the chance
TTITLE14=Making love (out of nothing at all)
TTITLE15=I can wait forever
TTITLE16=Just as I am
TTITLE17=The power of love (you are my lady) 
EXTD=
EXTT0=
EXTT1=
EXTT2=
EXTT3=
EXTT4=
EXTT5=
EXTT6=
EXTT7=
EXTT8=
EXTT9=
EXTT10=
EXTT11=
EXTT12=
EXTT13=
EXTT14=
EXTT15=
EXTT16=
EXTT17=
PLAYORDER=
